<?xml version="1.0" encoding="UTF-8" standalone="no"?>
<!-- Created with Inkscape (http://www.inkscape.org/) -->

<svg
   width="93.204407mm"
   height="47.865906mm"
   viewBox="0 0 93.204407 47.865906"
   version="1.1"
   id="svg1"
   inkscape:version="1.3.2 (091e20e, 2023-11-25, custom)"
   sodipodi:docname="cloud5.svg"
   xmlns:inkscape="http://www.inkscape.org/namespaces/inkscape"
   xmlns:sodipodi="http://sodipodi.sourceforge.net/DTD/sodipodi-0.dtd"
   xmlns="http://www.w3.org/2000/svg"
   xmlns:svg="http://www.w3.org/2000/svg">
  <sodipodi:namedview
     id="namedview1"
     pagecolor="#ffffff"
     bordercolor="#000000"
     borderopacity="0.25"
     inkscape:showpageshadow="2"
     inkscape:pageopacity="0.0"
     inkscape:pagecheckerboard="0"
     inkscape:deskcolor="#d1d1d1"
     inkscape:document-units="mm"
     inkscape:zoom="1.1598906"
     inkscape:cx="145.27232"
     inkscape:cy="42.67644"
     inkscape:window-width="1920"
     inkscape:window-height="1027"
     inkscape:window-x="1592"
     inkscape:window-y="-8"
     inkscape:window-maximized="1"
     inkscape:current-layer="layer1" />
  <defs
     id="defs1" />
  <g
     inkscape:label="Layer 1"
     inkscape:groupmode="layer"
     id="layer1"
     transform="translate(-7.7533917,-131.76249)">
    <path
       fill="#fe9271"
       opacity="1"
       stroke="none"
       d="m 100.39427,164.67537 c 0.021,2.81321 -1.46784,5.23494 -2.725863,7.71729 -0.625543,1.2343 -1.847521,1.56956 -3.187991,1.22369 -0.5071,-0.13086 -0.994174,-0.34938 -1.479012,-0.55475 -2.841871,-1.2038 -5.554433,-1.4311 -8.169802,0.67535 -1.295252,1.04323 -2.817963,1.79951 -4.204054,2.73555 -2.456162,1.65852 -5.18305,2.59451 -8.074081,3.09576 -0.495919,0.0859 -1.034066,0.0781 -1.529532,-0.0127 -1.202301,-0.22066 -2.392588,-0.50869 -3.584406,-0.78393 -0.513508,-0.11859 -1.167307,-0.11634 -1.503656,-0.43604 -2.1234,-2.01795 -4.631436,-1.07161 -6.965886,-0.88397 -4.90161,0.39397 -9.78626,1.00103 -14.676406,1.534 -0.872003,0.0951 -1.736913,0.25522 -2.82694,0.42241 -4.419088,0.0525 -8.616651,0.10276 -12.813437,0.0655 -1.565674,-0.014 -3.140591,-0.15451 -4.691731,-0.37496 -2.629269,-0.37357 -4.675006,-1.77935 -6.354391,-3.80125 L 9.5701471,163.03196 c 9.8323149,-1.45398 60.4152429,1.80296 90.8241229,1.64341 z"
       id="path40"
       sodipodi:nodetypes="csssscscscsscssccc"
       style="fill:#ff916f;fill-opacity:1;stroke-width:0.264583" />
    <path
       fill="#fee7b5"
       opacity="1"
       stroke="none"
       d="m 15.610416,145.93522 c 4.356372,-0.20788 4.400879,0.48808 6.287529,-4.39981 0.285168,-0.7388 0.581629,-1.47357 0.889457,-2.20316 0.953415,-2.25981 2.611129,-3.6848 4.997969,-4.30691 4.840421,-1.26148 9.706407,-2.41123 14.664726,-3.08721 1.287198,-0.1755 2.778122,-0.33642 3.913394,0.13163 3.354062,1.38295 6.941991,2.37421 9.583118,5.17532 0.800367,0.84887 1.965259,1.47765 3.081001,1.88251 3.540324,1.28477 5.32076,3.72783 5.469575,7.54291 0.118912,3.04839 0.406842,6.09017 0.625586,9.21842 2.153661,0.52742 4.025673,-0.1779 5.87048,-0.50832 1.860402,-0.33311 3.405164,-0.3021 4.879718,1.08575 0.546119,0.51398 1.583309,0.72379 2.386764,0.70247 1.797767,-0.0476 3.349178,0.0924 4.925417,1.29889 0.981806,0.7515 2.651382,0.75213 4.023625,0.80719 1.584941,0.0634 3.13223,-0.0478 4.632105,0.71565 0.536668,0.2731 1.332413,0.0922 2.00302,0.0362 1.645748,-0.13766 3.147158,-0.18991 4.845789,0.47379 2.031101,0.79357 2.548491,1.86786 2.137331,4.04614 -0.18181,0.39733 -0.25751,0.50404 -0.32959,0.61328 0,0 0.002,-0.0486 -0.1275,0.0444 -0.32853,0.26705 -0.539752,0.4291 -0.724873,0.61688 -2.492008,2.52783 -5.258031,4.0364 -8.954082,2.70547 -0.5754,-0.2073 -1.474941,-0.0337 -2.021597,0.29816 -1.498407,0.90964 -3.156156,0.96467 -4.791546,1.25619 -1.554903,0.27717 -3.178696,0.53046 -4.584303,1.1929 -1.853869,0.87378 -3.290961,0.52141 -4.886039,-0.54396 -1.9875,-1.32744 -4.089964,-2.52182 -6.666846,-1.66391 -0.236427,0.0787 -0.550511,0.11308 -0.77033,0.0241 -3.029518,-1.22487 -5.6082,0.0486 -8.172992,1.43494 -1.240459,0.67042 -2.442845,1.44195 -3.746325,1.95431 -0.85815,0.33727 -1.878529,0.45908 -2.804062,0.38818 -2.186255,-0.16778 -4.361588,-0.49112 -6.536661,-0.78608 -1.174919,-0.15936 -2.008973,0.34404 -2.793836,1.15231 -1.711229,1.76223 -3.835888,2.77762 -6.232352,3.24543 -2.71745,0.53057 -5.358993,-0.6959 -6.690011,-3.12081 -0.293368,-0.53459 -0.526657,-1.10212 -0.738199,-1.54998 -0.186949,-0.12073 -0.253965,-0.19011 -0.333666,-0.21095 -0.339514,-0.0888 -0.680244,-0.17688 -1.025072,-0.2407 -3.697085,-0.68381 -6.276498,-2.67509 -7.327469,-6.37299 -0.286162,-1.00684 -0.957027,-1.46 -1.863109,-1.62962 -2.422373,1.45938 -5.429209,1.38453 -8.7091815,0.59271 -1.6606651,-1.32557 -1.5197274,-7.84693 -2.0706708,-9.44578 -1.0575251,-3.06896 2.8755753,-7.24315 7.6837123,-8.56593 z"
       id="path33"
       sodipodi:nodetypes="csscscssscsscscscscccssssssscsscsssscscsccscc"
       style="fill:#ffe7b5;fill-opacity:1;stroke-width:0.264583" />
  </g>
</svg>
