<?xml version="1.0" encoding="UTF-8" standalone="no"?>
<!-- Created with Inkscape (http://www.inkscape.org/) -->

<svg
   width="308.66214mm"
   height="84.714447mm"
   viewBox="0 0 308.66214 84.714447"
   version="1.1"
   id="svg1"
   inkscape:version="1.3.2 (091e20e, 2023-11-25, custom)"
   sodipodi:docname="cloud2.svg"
   xmlns:inkscape="http://www.inkscape.org/namespaces/inkscape"
   xmlns:sodipodi="http://sodipodi.sourceforge.net/DTD/sodipodi-0.dtd"
   xmlns="http://www.w3.org/2000/svg"
   xmlns:svg="http://www.w3.org/2000/svg">
  <sodipodi:namedview
     id="namedview1"
     pagecolor="#ffffff"
     bordercolor="#000000"
     borderopacity="0.25"
     inkscape:showpageshadow="2"
     inkscape:pageopacity="0.0"
     inkscape:pagecheckerboard="0"
     inkscape:deskcolor="#d1d1d1"
     inkscape:document-units="mm"
     inkscape:zoom="0.69799603"
     inkscape:cx="457.02266"
     inkscape:cy="165.47372"
     inkscape:window-width="1920"
     inkscape:window-height="1027"
     inkscape:window-x="1592"
     inkscape:window-y="-8"
     inkscape:window-maximized="1"
     inkscape:current-layer="layer1" />
  <defs
     id="defs1" />
  <g
     inkscape:label="Layer 1"
     inkscape:groupmode="layer"
     id="layer1"
     transform="translate(56.620835,-14.55207)">
    <path
       fill="#fe9170"
       opacity="1"
       stroke="none"
       d="m 84.262673,47.692426 c 50.509197,20.823872 160.972037,3.108091 167.778637,10.150449 -1.42762,12.057178 -8.37665,17.833339 -46.16442,26.18269 -5.8529,-3.3147 -6.47438,-7.132558 -10.68689,0.305937 -8.52546,5.891054 -16.27407,15.533979 -27.8497,13.709677 -9.50026,-2.710551 -17.07306,-7.441036 -27.38411,-4.288923 -11.05249,1.164749 -22.96678,-3.605529 -32.51469,3.926073 -8.398647,2.730181 -17.860676,1.47447 -26.351949,-0.291756 C 73.953024,92.41574 65.287497,94.271078 57.231173,92.572744 47.95467,89.67262 39.438791,86.982389 30.969478,93.243569 19.415018,95.813757 15.481069,78.855527 5.4201159,87.477954 -4.4913106,93.565487 -11.041537,81.644156 -19.505351,82.811656 c -6.55239,3.469958 -17.055671,4.217644 -21.288525,-2.544154 -7.120774,8.218012 -20.38001,-8.549719 -14.254491,-10.308933 z"
       id="path95"
       sodipodi:nodetypes="ccccccccccccccc"
       style="fill:#ff916f;fill-opacity:1;stroke-width:0.264583" />
    <path
       fill="#ffe7b5"
       opacity="1"
       stroke="none"
       d="m 239.22127,55.248265 c 7.90906,0.107738 10.72319,10.40458 0.98026,9.404641 -6.69378,0.131418 -11.37529,-0.06615 -15.41175,5.77035 -6.72883,1.981968 -10.444,-5.546381 -17.35113,-2.780215 -6.24427,-6.673321 -17.6003,-6.000221 -21.68941,2.710736 -5.57781,1.710213 -0.61856,13.567013 -10.33025,12.374192 -7.24538,-2.812018 -13.74783,-4.678019 -21.80458,-4.550013 -4.69432,-2.035334 -8.60843,-14.505729 -11.713,-7.906041 8.98125,9.302908 -10.10962,19.19888 -14.78949,8.604382 0.12787,-8.16647 -8.67394,5.640387 -11.89776,-3.276944 -3.59288,-5.584111 -18.525913,-6.212999 -9.45436,1.099555 7.24041,9.027928 -6.213524,16.69542 -14.362717,13.729679 -8.082677,1.302941 -19.319346,-12.832688 -17.79606,-11.139567 -4.973214,9.864514 -20.42287,6.818736 -24.4593,-2.514335 -3.485753,-4.81375 -5.640838,-8.639731 -9.52082,-2.118969 C 32.047232,79.99514 22.892781,85.696461 13.487936,79.655098 8.5767591,77.704537 9.0608857,69.090312 3.5661567,74.716015 -5.2548848,76.664407 -14.849348,69.929464 -20.015835,63.73705 -24.994809,50.84118 -6.4465073,53.359219 0.98789268,51.582859 10.133268,53.947361 12.155048,39.919524 22.088395,39.678065 c 11.225133,-4.986126 23.356093,5.520716 33.811527,0.07297 4.094824,-13.794846 19.316726,-19.170121 31.717218,-23.04833 16.03145,-4.815761 32.76449,-0.83484 47.92236,4.962789 8.14126,2.585376 16.60263,4.306755 24.33863,8.015235 7.62145,-3.961871 16.04841,-6.450277 24.62149,-3.411908 8.58734,1.836182 18.13271,3.814604 22.99176,12.026027 9.16107,4.313264 10.11716,16.148579 21.71216,14.538219 3.3478,0.769593 6.65903,1.692275 10.01773,2.415196 z"
       id="path93"
       style="fill:#ffe7b5;fill-opacity:1;stroke-width:0.264583" />
    <path
       fill="#FEE6B5"
       opacity="1"
       stroke="none"
       d="m -25.794179,58.287084 c 2.346917,3.625373 2.304026,5.24891 -0.179576,8.466931 -0.528343,0.684583 -0.665138,1.254707 -0.574172,2.13778 0.274257,2.661523 -1.480209,4.13721 -4.106079,3.587459 -2.491192,-0.521626 -4.972291,-1.091856 -7.455458,-1.651265 -2.087097,-0.470138 -4.058407,-0.0713 -5.779167,1.092439 -4.165073,2.816701 -8.567695,1.625414 -11.159736,-1.961886 -0.334767,-0.463418 -0.91146,-0.752025 -1.551908,-1.171707 -0.08511,-2.147993 1.30034,-3.365288 2.908284,-4.318794 1.503463,-0.89154 3.066124,-1.747493 4.706657,-2.322724 1.261793,-0.44241 2.684899,-0.424709 4.351964,-0.655267 0.853485,-1.513073 2.281013,-2.858479 4.458272,-3.157802 2.666841,-2.774394 5.943645,-2.007314 9.120613,-1.475766 1.717162,0.287337 3.381883,0.887994 5.260306,1.430602 z"
       id="path96"
       style="fill:#ffe7b5;fill-opacity:1;stroke-width:0.264583" />
  </g>
</svg>
