<?xml version="1.0" encoding="UTF-8" standalone="no"?>
<!-- Created with Inkscape (http://www.inkscape.org/) -->

<svg
   width="334.37787mm"
   height="111.92943mm"
   viewBox="0 0 334.37787 111.92943"
   version="1.1"
   id="svg1"
   inkscape:version="1.3.2 (091e20e, 2023-11-25, custom)"
   sodipodi:docname="cloud3.svg"
   xmlns:inkscape="http://www.inkscape.org/namespaces/inkscape"
   xmlns:sodipodi="http://sodipodi.sourceforge.net/DTD/sodipodi-0.dtd"
   xmlns="http://www.w3.org/2000/svg"
   xmlns:svg="http://www.w3.org/2000/svg">
  <sodipodi:namedview
     id="namedview1"
     pagecolor="#ffffff"
     bordercolor="#000000"
     borderopacity="0.25"
     inkscape:showpageshadow="2"
     inkscape:pageopacity="0.0"
     inkscape:pagecheckerboard="0"
     inkscape:deskcolor="#d1d1d1"
     inkscape:document-units="mm"
     inkscape:zoom="0.57994529"
     inkscape:cx="900.94706"
     inkscape:cy="452.62891"
     inkscape:window-width="1920"
     inkscape:window-height="1027"
     inkscape:window-x="1592"
     inkscape:window-y="-8"
     inkscape:window-maximized="1"
     inkscape:current-layer="layer1" />
  <defs
     id="defs1" />
  <g
     inkscape:label="Layer 1"
     inkscape:groupmode="layer"
     id="layer1"
     transform="translate(133.08542,-28.839571)">
    <path
       fill="#ff9170"
       opacity="1"
       stroke="none"
       d="m -54.641628,83.152238 76.733086,-5.854912 c 7.521258,12.192979 172.798552,27.651104 179.048302,29.767614 0.78856,8.39099 -1.16462,23.97193 -13.30367,20.37577 -6.91944,-4.99227 -15.84032,0.27024 -22.58526,0.92919 -10.7275,8.04571 -19.55046,-10.89967 -30.17171,-0.99531 -14.78745,-1.02732 -24.21093,10.27938 -38.43226,11.46408 -12.860655,2.56079 -22.660821,-9.11865 -34.748998,-5.80398 -25.61045,4.33472 -51.743001,8.67928 -77.740036,5.33291 -12.171539,2.38395 -28.207115,1.57975 -34.67791,-10.91104 -5.196891,-5.2985 -7.643813,-12.73527 -10.259878,-1.43963 -9.399995,10.66732 -26.132853,9.84208 -38.702752,13.04012 -12.815166,6.10206 -25.618676,-5.30738 -32.091266,-15.36578 -3.01207,-4.57673 -1.09077,-12.30527 1.99266,-3.80047 24.9799,-12.24619 63.845646,-7.25477 74.939692,-36.738562 z"
       id="path50"
       sodipodi:nodetypes="ccccccccccccccc"
       style="fill:#ff916f;fill-opacity:1;stroke-width:0.264583" />
    <path
       fill="#fed09c"
       opacity="1"
       stroke="none"
       d="m -56.214902,83.001425 c 6.020033,-10.727399 16.361444,-17.859507 23.474034,-27.716691 17.046287,-17.796113 42.4215425,-25.230799 66.441581,-26.44439 17.333992,-0.09382 36.05657,8.355436 44.217854,24.282056 2.560559,10.783914 17.910784,6.564604 23.782973,15.493312 5.81406,11.575097 18.67204,1.385782 28.05025,1.547495 9.77585,-0.173567 16.72527,8.290533 25.62966,11.180551 7.93131,2.499862 4.67132,16.384693 14.58158,10.994601 8.29472,1.110668 16.74932,0.836295 24.84459,2.887186 6.59707,2.837657 8.84227,12.222615 0.0529,13.455835 -5.02525,9.28008 -13.01183,4.4273 -19.45529,-0.0609 -9.34323,-0.41741 -18.29069,3.02077 -27.31796,3.42196 -8.1961,-1.08953 -8.5526,-13.657052 -18.80185,-8.47175 -12.461,-1.52429 -8.15387,17.80075 -21.68117,14.91816 -5.55943,-1.59782 -7.909191,-7.03566 -13.760875,-2.11227 C 85.02054,117.91883 72.303924,116.80607 71.397832,105.2396 76.89246,93.638204 62.255552,92.714147 54.351469,95.619034 44.568685,94.779246 43.25667,106.39781 38.911391,110.44099 c -4.56229,-2.54235 -7.336949,-10.09438 -10.17688,-1.52707 -10.03255,9.47132 -28.01863405,10.27351 -38.4959752,1.03164 -6.5284428,-3.83477 -1.4962158,-14.105943 -3.9146978,-16.798581 -6.110214,3.919035 -11.658561,9.852841 -19.454926,10.664481 -11.808571,2.77032 -23.533198,-7.583302 -22.855283,-19.52535 z"
       id="path49"
       style="fill:#fed09c;fill-opacity:1;stroke-width:0.264583" />
    <path
       fill="#fed09c"
       opacity="1"
       stroke="none"
       d="m -61.846278,97.211217 c 2.646641,2.767753 6.096567,5.280073 7.109503,9.151833 0.765945,3.01101 -2.208001,4.78713 -4.020497,6.58585 -2.921852,3.05879 -7.568655,3.25794 -11.332689,1.84055 -2.342822,-0.61873 -5.192784,-2.86086 -4.532934,1.01414 -0.71469,4.16293 -5.200597,5.71873 -8.825662,6.36601 -2.911207,1.43301 -6.164643,-0.78732 -8.734086,-0.0626 -1.806387,3.97693 -5.450877,7.14701 -9.864307,7.72729 -4.17652,0.795 -9.4957,0.22873 -11.69435,-3.95909 -0.57609,-3.75526 -3.76341,-2.06079 -6.35211,-1.70715 -4.04887,0.28435 -8.39422,-1.38639 -10.95464,-4.57932 -1.44586,-2.10958 -2.48701,-5.61129 0.15018,-7.26702 2.91882,-1.54237 6.26926,-2.10119 9.45018,-2.90703 2.62573,-0.75658 5.41877,-0.2684 8.03132,-0.77245 2.59089,-2.16123 4.49133,-5.10739 6.90586,-7.49007 4.13819,-5.039013 10.84512,-8.116911 17.382818,-6.771637 3.713202,1.008009 7.620785,1.429173 11.400634,0.465984 4.077991,-1.01891 8.522498,-1.154324 12.337533,0.840555 1.181659,0.506677 2.350281,1.04431 3.543247,1.524185 z"
       id="path53"
       style="fill:#fed09c;fill-opacity:1;stroke-width:0.264583" />
  </g>
</svg>
