<?xml version="1.0" encoding="UTF-8" standalone="no"?>
<!-- Created with Inkscape (http://www.inkscape.org/) -->

<svg
   width="82.077179mm"
   height="45.441418mm"
   viewBox="0 0 82.077179 45.441418"
   version="1.1"
   id="svg1"
   inkscape:version="1.3.2 (091e20e, 2023-11-25, custom)"
   sodipodi:docname="cloud1.svg"
   xmlns:inkscape="http://www.inkscape.org/namespaces/inkscape"
   xmlns:sodipodi="http://sodipodi.sourceforge.net/DTD/sodipodi-0.dtd"
   xmlns="http://www.w3.org/2000/svg"
   xmlns:svg="http://www.w3.org/2000/svg">
  <sodipodi:namedview
     id="namedview1"
     pagecolor="#ffffff"
     bordercolor="#000000"
     borderopacity="0.25"
     inkscape:showpageshadow="2"
     inkscape:pageopacity="0.0"
     inkscape:pagecheckerboard="0"
     inkscape:deskcolor="#d1d1d1"
     inkscape:document-units="mm"
     inkscape:zoom="1.1598906"
     inkscape:cx="193.55274"
     inkscape:cy="34.917087"
     inkscape:window-width="1920"
     inkscape:window-height="1027"
     inkscape:window-x="1592"
     inkscape:window-y="-8"
     inkscape:window-maximized="1"
     inkscape:current-layer="layer1" />
  <defs
     id="defs1" />
  <g
     inkscape:label="Layer 1"
     inkscape:groupmode="layer"
     id="layer1"
     transform="translate(-29.633332,-52.916662)">
    <path
       fill="#FE9271"
       opacity="1"
       stroke="none"
       d="m 31.165601,81.667082 c 3.891642,-1.749372 7.439702,-1.178295 10.941013,1.222666 2.611739,1.790912 5.709938,1.511009 8.704776,0.931651 0.856858,-0.165735 1.687647,-0.466381 2.629804,-0.733293 0.424014,0.465482 0.808808,0.925275 1.232215,1.346306 1.958409,1.947492 4.141343,2.915523 6.916796,1.730005 1.718926,-0.734325 3.330416,-0.355283 4.536519,1.050263 3.210166,3.740918 7.369834,3.789813 11.651414,2.928753 2.394095,-0.481568 4.720939,-1.364457 7.023391,-2.214536 2.012926,-0.743215 3.727445,-1.971305 4.950981,-3.803968 0.472048,-0.707125 1.01826,-1.364694 1.688238,-2.253932 0.659682,0.791104 1.151503,1.371256 1.633008,1.959848 3.84852,4.704424 11.150144,5.182499 14.878034,2.623476 0.61829,-0.424471 1.44413,-0.54655 2.37944,-0.781923 -0.81329,3.094117 -3.35183,4.174675 -6.16156,4.212643 -2.27513,0.03088 -4.325415,0.664183 -6.412535,1.260475 -3.736142,1.067699 -7.500554,1.883859 -11.399361,1.92106 -1.480839,0.01402 -2.60232,0.514773 -3.694462,1.614302 -4.005448,4.0327 -8.361828,4.663228 -13.490617,2.309548 -0.978776,-0.449183 -2.1736,-0.695881 -3.242308,-0.626904 -2.514973,0.162481 -4.695144,-0.431482 -6.580549,-2.110766 -0.392952,-0.349991 -0.808705,-0.690087 -1.260317,-0.956019 -3.006857,-1.770433 -6.026335,-3.519435 -9.255127,-5.399749 -0.221062,0.368538 -0.591106,0.90977 -0.886137,1.489313 -2.120834,4.165441 -6.458913,4.557289 -9.436566,2.251948 -3.457533,-2.676789 -5.446366,-6.105128 -7.34609,-9.971167 z"
       id="path57"
       style="fill:#ff916f;fill-opacity:1;stroke-width:0.264583" />
    <path
       fill="#FEE7B5"
       opacity="1"
       stroke="none"
       d="m 111.71042,84.625177 c -0.18916,0.454237 -0.37834,0.908526 -0.76423,1.575541 -0.32366,0.304826 -0.40515,0.427169 -0.44119,0.579808 0,0 0.002,-0.0299 -0.18843,-0.05302 -0.92065,0.238601 -1.74649,0.36068 -2.36478,0.785151 -3.72789,2.559024 -11.029514,2.080948 -14.878034,-2.623476 -0.481505,-0.588592 -0.973326,-1.168744 -1.633008,-1.959848 -0.669978,0.889238 -1.21619,1.546807 -1.688238,2.253933 -1.223536,1.832662 -2.938055,3.060752 -4.950981,3.803967 -2.302452,0.85008 -4.629296,1.732968 -7.023391,2.214536 -4.28158,0.86106 -8.441248,0.812165 -11.651414,-2.928752 -1.206103,-1.405546 -2.817593,-1.784588 -4.536519,-1.050264 -2.775453,1.185519 -4.958387,0.217488 -6.916796,-1.730004 -0.423407,-0.421032 -0.808201,-0.880825 -1.232215,-1.346306 -0.942157,0.266911 -1.772946,0.567558 -2.629804,0.733293 -2.994838,0.579358 -6.093037,0.85926 -8.704776,-0.931651 -3.501311,-2.400962 -7.049371,-2.972038 -10.967159,-1.408959 -0.506357,-1.661928 -1.259319,-3.29438 -1.462447,-4.992582 -0.320879,-2.682663 1.143463,-4.467622 3.827735,-5.139425 2.385382,-0.596927 4.785158,-1.136359 7.179341,-1.701509 0.108231,-0.136234 0.305658,-0.26924 0.310235,-0.40857 0.187028,-5.689706 3.930946,-9.437608 7.348736,-13.330581 0.666562,-0.759196 1.666128,-1.444625 2.631252,-1.684126 3.570584,-0.886513 7.178921,-1.639517 10.800633,-2.288963 0.991428,-0.177747 2.165701,-0.03829 3.107803,0.332422 4.122206,1.621922 8.106434,3.479297 10.329958,7.695142 0.522626,0.990891 1.208357,1.895819 1.783345,2.78503 0.33388,-0.06911 0.596055,-0.05051 0.645374,-0.144118 1.972328,-3.741896 5.835666,-3.87223 9.249637,-4.832324 0.924687,-0.260059 1.897132,-0.366395 2.854711,-0.487362 0.607989,-0.07676 1.290167,-0.227833 1.833804,-0.04032 2.660237,0.91739 5.288266,1.934052 7.340224,3.98399 1.792434,1.790594 2.414404,4.064953 2.528654,6.490256 0.0908,1.928098 0.0183,3.863895 0.0183,5.745771 2.36882,1.500029 4.50623,2.800535 7.22402,2.712878 1.47722,-0.0476 2.15909,1.098498 2.58315,2.285577 0.29078,0.814044 0.31247,1.724184 0.43659,3.013578 -0.0119,0.978561 -0.006,1.534927 -1e-4,2.091293 z"
       id="path51"
       style="fill:#ffe7b5;fill-opacity:1;stroke-width:0.264583" />
  </g>
</svg>
