<?xml version="1.0" encoding="UTF-8" standalone="no"?>
<!-- Created with Inkscape (http://www.inkscape.org/) -->

<svg
   width="99.04953mm"
   height="45.80703mm"
   viewBox="0 0 99.04953 45.80703"
   version="1.1"
   id="svg1"
   inkscape:version="1.3.2 (091e20e, 2023-11-25, custom)"
   sodipodi:docname="cloud4.svg"
   xmlns:inkscape="http://www.inkscape.org/namespaces/inkscape"
   xmlns:sodipodi="http://sodipodi.sourceforge.net/DTD/sodipodi-0.dtd"
   xmlns="http://www.w3.org/2000/svg"
   xmlns:svg="http://www.w3.org/2000/svg">
  <sodipodi:namedview
     id="namedview1"
     pagecolor="#ffffff"
     bordercolor="#000000"
     borderopacity="0.25"
     inkscape:showpageshadow="2"
     inkscape:pageopacity="0.0"
     inkscape:pagecheckerboard="0"
     inkscape:deskcolor="#d1d1d1"
     inkscape:document-units="mm"
     inkscape:zoom="0.57994529"
     inkscape:cx="376.75968"
     inkscape:cy="287.09605"
     inkscape:window-width="1920"
     inkscape:window-height="1027"
     inkscape:window-x="1592"
     inkscape:window-y="-8"
     inkscape:window-maximized="1"
     inkscape:current-layer="layer1" />
  <defs
     id="defs1" />
  <g
     inkscape:label="Layer 1"
     inkscape:groupmode="layer"
     id="layer1"
     transform="translate(-5.2916726,-72.495761)">
    <path
       fill="#FEE7B5"
       opacity="1"
       stroke="none"
       d="m 23.307546,105.91396 c -1.745258,-2.59609 -1.114079,-5.2025 0.03235,-7.770046 0.466397,-1.044654 1.404001,-1.64047 2.554642,-1.575752 2.442551,0.13708 4.357613,-1.090772 6.313244,-2.123123 0.217607,-2.493777 0.461309,-4.848939 0.616402,-7.209763 0.113642,-1.729608 0.520285,-3.394128 1.726624,-4.614704 3.115201,-3.152272 6.548696,-5.644118 11.404602,-4.445741 1.6202,0.399865 3.26322,0.711332 4.902608,1.028118 2.17493,0.420132 3.986998,1.356122 5.122473,3.363357 0.159179,0.281517 0.487889,0.467016 0.982999,0.92202 0.49984,-0.728372 1.005623,-1.295003 1.321318,-1.952837 2.224638,-4.635129 6.307706,-6.990794 10.836579,-8.686932 1.175364,-0.440161 2.645834,-0.416137 3.917495,-0.211614 3.204956,0.514959 6.384155,1.209358 9.550207,1.934369 0.832411,0.190421 1.771179,0.575416 2.33303,1.177449 2.805885,3.005878 6.012714,5.754158 7.312861,9.859856 0.473082,1.493838 0.699489,3.065701 1.090792,4.839256 1.256046,0.102447 2.464191,0.200872 3.907499,0.293132 1.466657,0.402034 2.694908,0.820473 3.930289,1.216845 2.14926,0.689478 3.051,1.731804 3.13817,3.942133 0.0785,1.990831 0.22572,4.036457 -1.66224,5.768127 -3.967645,-0.97991 -7.232561,-0.53938 -10.44401,1.57044 -1.46267,0.96107 -3.440457,1.36969 -5.229543,1.53143 -1.519174,0.13721 -3.108626,-0.41095 -4.655933,-0.7125 -0.873654,-0.17039 -1.777765,-0.51506 -2.429389,0.36291 -2.112179,2.84583 -4.826272,3.11726 -8.008863,2.16654 -1.473763,-0.44016 -2.857659,-0.0347 -4.022653,1.26 -2.868367,3.18791 -6.560971,3.96126 -10.607202,3.01532 -2.302832,-0.53835 -4.511902,-1.46968 -6.806562,-2.05362 -2.609207,-0.66418 -4.619032,-2.08179 -6.156423,-4.24561 -0.492363,-0.69323 -1.002345,-1.37408 -1.62469,-2.22506 -0.46302,0.60759 -0.780833,1.01131 -1.084624,1.42536 -3.236333,4.41007 -10.54335,6.67956 -15.806431,2.98741 -0.679627,-0.47696 -1.630426,-0.5674 -2.455616,-0.83677 z"
       id="path103"
       style="fill:#ffe7b5;fill-opacity:1;stroke-width:0.264583" />
    <path
       fill="#FE9271"
       opacity="1"
       stroke="none"
       d="m 23.357867,105.56413 c 0.774869,0.09 1.725668,0.18047 2.405295,0.65743 5.263081,3.69216 12.570098,1.42267 15.806431,-2.98741 0.303791,-0.41404 0.621604,-0.81777 1.084624,-1.42536 0.622345,0.85098 1.132327,1.53183 1.62469,2.22507 1.537391,2.16381 3.547216,3.58142 6.156423,4.24561 2.29466,0.58393 4.50373,1.51527 6.806562,2.05361 4.046231,0.94594 7.738835,0.17259 10.607202,-3.01532 1.164994,-1.29474 2.54889,-1.70016 4.022653,-1.26 3.182591,0.95073 5.896684,0.67929 8.008863,-2.16654 0.651624,-0.87797 1.555735,-0.53329 2.429389,-0.3629 1.547307,0.30154 3.136759,0.84971 4.655933,0.71249 1.789086,-0.16174 3.766873,-0.57036 5.229543,-1.53143 3.211449,-2.10982 6.476365,-2.55035 10.277745,-1.45973 -0.16837,3.09401 -1.79651,5.5985 -3.767662,7.77123 -1.377193,1.51813 -3.222299,2.66121 -4.988647,3.76309 -1.688092,1.05318 -3.850621,0.66106 -5.518576,-0.98547 -1.155435,-1.14051 -2.045546,1.19216 -3.231311,-0.32337 -0.880261,0.6904 -1.812568,-2.32013 -2.840556,-1.43894 -1.488395,0.95563 -2.88109,1.76128 -4.606922,2.6833 -0.875335,0.45101 -1.417582,0.7855 -1.95983,1.11985 -0.649264,0.4373 -1.282528,0.90096 -1.951027,1.30649 -1.613532,0.97901 -3.366008,1.71347 -5.244253,1.21608 -1.343232,-0.35592 -2.353038,0.004 -3.476742,0.59055 -4.268975,2.22686 -9.734467,1.82094 -13.267504,-2.12908 -1.346139,-1.50495 -2.991789,-1.62782 -4.705834,-1.86902 -2.772392,-0.39028 -5.546397,-0.7688 -8.701114,-1.24539 -2.030852,-0.55552 -3.680333,-1.01791 -5.329796,-1.48027 -1.787551,-0.22688 -3.575105,-0.45386 -5.572172,-0.69738 -1.799051,-0.92269 -3.072842,-2.13797 -3.953407,-3.96719 z"
       id="path107"
       style="fill:#ff916f;fill-opacity:1;stroke-width:0.264583"
       sodipodi:nodetypes="ccsccsssssssccsssccccsscsscccc" />
    <path
       fill="#FE9271"
       opacity="1"
       stroke="none"
       d="m 5.4339284,97.677268 c 0.7834128,-0.08398 1.5578667,0.09313 2.3398427,0.137319 0.6827256,0.0385 1.5105989,0.15748 2.0383923,-0.156183 2.6958956,-1.602238 5.4109276,-1.142048 8.1693176,-0.323242 0.251761,0.0748 0.519205,0.09676 0.996354,0.178806 -0.768233,2.698172 -2.175319,5.019732 -4.575479,6.705782 -3.077347,2.16152 -5.6821306,1.63518 -7.2471834,-1.71836 C 6.4619167,101.01594 5.996893,99.42418 5.4339284,97.677268 Z"
       id="path115"
       style="fill:#ff916f;fill-opacity:1;stroke-width:0.264583" />
    <path
       fill="#FEE6B5"
       opacity="1"
       stroke="none"
       d="m 5.4396117,98.003076 c -0.808527,-4.013835 1.7729067,-7.440109 5.8897093,-7.352638 2.236087,0.04755 4.488209,0.70731 6.673072,1.308841 1.390452,0.383037 2.119284,1.608799 2.071516,3.051228 -0.03094,0.933661 -0.398344,1.855946 -0.964007,2.890255 -0.609216,0.06033 -0.87666,0.03836 -1.128421,-0.03643 C 15.223091,97.045523 12.508059,96.585333 9.8121634,98.18757 9.28437,98.501234 8.4564967,98.382251 7.7737711,98.343754 6.9917951,98.299568 6.2173412,98.122456 5.4396117,98.003076 Z"
       id="path114"
       style="fill:#ffe7b5;fill-opacity:1;stroke-width:0.264583" />
  </g>
</svg>
