<?xml version="1.0" encoding="UTF-8" standalone="no"?>
<!-- Created with Inkscape (http://www.inkscape.org/) -->

<svg
   width="123.9595mm"
   height="56.913052mm"
   viewBox="0 0 123.9595 56.913052"
   version="1.1"
   id="svg1"
   inkscape:version="1.3.2 (091e20e, 2023-11-25, custom)"
   sodipodi:docname="cloud6.svg"
   xmlns:inkscape="http://www.inkscape.org/namespaces/inkscape"
   xmlns:sodipodi="http://sodipodi.sourceforge.net/DTD/sodipodi-0.dtd"
   xmlns="http://www.w3.org/2000/svg"
   xmlns:svg="http://www.w3.org/2000/svg">
  <sodipodi:namedview
     id="namedview1"
     pagecolor="#ffffff"
     bordercolor="#000000"
     borderopacity="0.25"
     inkscape:showpageshadow="2"
     inkscape:pageopacity="0.0"
     inkscape:pagecheckerboard="0"
     inkscape:deskcolor="#d1d1d1"
     inkscape:document-units="mm"
     inkscape:zoom="0.82016649"
     inkscape:cx="142.04433"
     inkscape:cy="15.240808"
     inkscape:window-width="1920"
     inkscape:window-height="1027"
     inkscape:window-x="1592"
     inkscape:window-y="-8"
     inkscape:window-maximized="1"
     inkscape:current-layer="layer1" />
  <defs
     id="defs1" />
  <g
     inkscape:label="Layer 1"
     inkscape:groupmode="layer"
     id="layer1"
     transform="translate(-17.972343,-79.639561)">
    <path
       fill="#fe9170"
       opacity="1"
       stroke="none"
       d="m 18.391646,119.10999 c 41.297092,-0.2115 84.873334,-18.08297 120.651554,-18.81309 0.1182,4.2382 -0.33842,12.87268 -4.48278,21.17958 -2.12063,4.25058 2.56196,9.12215 -9.37395,11.77535 -6.45601,0.13057 -12.59373,-2.4735 -19.05294,-2.43617 -4.68467,0.0271 -9.691357,2.74325 -14.372801,2.62315 -3.998437,0.56446 -8.806683,-3.19627 -12.112387,0.14417 -2.699623,2.75058 -6.542961,1.72246 -9.804718,1.07643 -4.860369,0.74205 -10.035672,2.00665 -14.789123,-0.0257 -2.80879,-2.44213 -6.688958,-0.0676 -9.090898,-3.26674 -2.072561,-1.1512 -4.988031,-6.20781 -5.777362,-1.63628 -1.232138,3.98457 -5.005811,8.5217 -9.593289,6.18217 -2.771669,-1.7358 -6.857762,-1.13326 -8.522388,-4.56073 -1.668753,-3.05207 -3.643947,-6.19752 -4.078896,-9.6933 0.04165,-1.53481 -0.216901,-1.07457 0.399978,-2.54884 z"
       id="path35"
       sodipodi:nodetypes="ccscscccccccccc"
       style="fill:#ff916f;fill-opacity:1;stroke-width:0.264583" />
    <path
       fill="#fed09c"
       opacity="1"
       stroke="none"
       d="m 18.354597,119.17253 c 0.685509,-3.86612 4.667779,-5.54498 8.173535,-5.85266 4.552897,-2.41639 8.531595,0.95353 12.858829,1.76479 3.240855,0.95491 5.308468,1.4551 6.364499,-2.34325 2.548599,-4.54086 7.365206,-7.39868 12.489074,-7.95624 3.900673,-1.99273 10.030487,1.14285 12.316804,-3.21833 7.045484,-12.502228 21.25591,-18.709671 34.832792,-21.069966 6.50161,-1.229519 13.35246,-1.362736 19.59565,1.117997 3.61481,1.720562 5.28674,4.182533 8.44938,6.229083 4.94163,3.197739 8.61063,7.880598 8.49397,14.400606 -0.23112,2.62043 0.3448,8.01912 -5.46224,11.19083 -7.26069,3.96566 -22.54911,3.73308 -24.43396,1.52643 -3.69551,-5.20216 -10.54552,-8.24767 -16.844246,-6.51375 -5.199671,0.46034 -10.86522,2.66673 -12.953867,7.86397 -1.2768,2.71626 -0.992664,7.62577 -5.21216,5.46261 -6.175083,-0.93842 -12.560802,-0.62087 -18.672571,0.55097 -4.821423,1.95823 -9.979422,2.29814 -15.107761,1.89889 -4.456139,-0.65686 -6.318673,5.09111 -9.583367,5.16795 -6.213793,-1.13078 -8.419862,-8.76292 -14.456622,-10.1903 l -0.847566,-0.0296 z"
       id="path31"
       style="fill:#fed09c;fill-opacity:1;stroke-width:0.264583"
       sodipodi:nodetypes="ccccccccscscccccccccc" />
  </g>
</svg>
